<?xml version="1.0" encoding="UTF-8" standalone="no"?>
<svg
   id="svg141"
   version="1.1"
   viewBox="0 0 3000.0002 3000.0004"
   height="3000.0002"
   width="3000"
   xmlns="http://www.w3.org/2000/svg"
   xmlns:svg="http://www.w3.org/2000/svg">
  <defs
     id="defs129">
    <clipPath
       id="clip-1">
      <path
         clip-rule="nonzero"
         d="m 1168,1280 h 320 v 303 h -320 z m 0,0"
         id="path2" />
    </clipPath>
    <clipPath
       id="clip-2">
      <path
         clip-rule="evenodd"
         d="m 1340.5508,1280.2695 c 37.8789,65.5821 86.5,120.711 147.3203,165.8711 -69.4102,77.3907 -244.7422,124.8711 -318.9297,136.8399 20.3984,-70.9688 86.418,-242.5508 171.6094,-302.711"
         id="path3" />
    </clipPath>
  </defs>
  <g
     id="g142"
     transform="matrix(1.5132199,0,0,1.5132199,-703.18454,-703.18605)">
    <g
       id="g400">
      <path
         fill-rule="evenodd"
         fill="#e71e29"
         fill-opacity="1"
         d="m 2284.4179,656.89834 -0.012,-0.0234 c -38.2812,-42.72656 -71.539,-87.34766 -99.5898,-132.56641 79.1016,-20.96093 165.6406,-26.93359 261.9219,-12.82031 3.4765,97.26953 -11.9414,182.62891 -41.4414,258.9375 -41.8789,-32.83984 -82.5899,-70.80078 -120.8789,-113.52734"
         id="path130"
         style="fill:#ffffff" />
      <path
         fill-rule="evenodd"
         fill="#407bc8"
         fill-opacity="1"
         d="m 2223.8554,710.17568 c -38.7969,-42.75 -104.8907,-46.23047 -147.9493,-7.64844 -43.0703,38.57813 -46.8593,104.64844 -8.6211,147.89844 l 0.4532,0.51953 c 38.7382,43.25 105.1875,46.90235 148.4297,8.16016 43.2382,-38.73047 46.8906,-105.17969 8.1601,-148.41797 z M 1474.6171,1381.328 c -31.211,-35.293 -58.1797,-75.9414 -80.961,-122.9297 l 28.6211,-32.0117 c -4.5312,-11.0117 -8.7812,-22.3711 -12.7304,-34.0781 14.2304,-15.8438 28.3789,-31.9727 42.4804,-48.3008 l -195.8789,-132.8711 c 120.1094,-60.62107 242.9102,-90.24998 369.75,-73.60936 153.7071,-179.9414 318.168,-346.90234 536.7578,-404.82031 29.3907,47.3711 64.211,94.1211 104.2696,138.89844 l 0.4609,0.51172 c 40.2617,44.94922 83.0898,84.8789 127.1289,119.41797 -81.5391,210.94144 -265.5508,355.99214 -461.2695,489.04294 2.6523,127.918 -40.2696,246.7578 -113.6992,359.5078 l -110.6211,-209.289 c -17.7696,12.2304 -35.3477,24.5312 -52.6485,36.9609 -11.3789,-5.0117 -22.4492,-10.3711 -33.2109,-16.1016 l 0.1601,0.09 -35.3593,25.3515 c -42.3711,-27.1211 -79.6016,-58.1015 -111.5508,-93.8515 l -1.6992,-1.918"
         id="path131"
         style="fill:#ffffff" />
      <path
         fill-rule="evenodd"
         fill="#4ca1de"
         fill-opacity="1"
         d="m 1474.6171,1381.328 c -31.211,-35.293 -58.1797,-75.9414 -80.961,-122.9297 l 28.6211,-32.0117 c -4.5312,-11.0117 -8.7812,-22.3711 -12.7304,-34.0781 14.2304,-15.8438 28.3789,-31.9727 42.4804,-48.3008 l -195.8789,-132.8711 c 120.1094,-60.62107 242.9102,-90.24998 369.75,-73.60936 153.7071,-179.9414 318.168,-346.90234 536.7578,-404.82031 29.3907,47.3711 64.211,94.1211 104.2696,138.89844 l -43.0703,38.57031 c -38.7969,-42.75 -104.8907,-46.23047 -147.9493,-7.64844 -43.0703,38.57813 -46.8593,104.64844 -8.6211,147.89844 L 1474.6171,1381.328"
         id="path132"
         style="fill:#ffffff" />
      <path
         fill-rule="evenodd"
         fill="#2c55ab"
         fill-opacity="1"
         d="m 2394.5155,791.53506 c -81.5391,210.94144 -265.5508,355.99214 -461.2695,489.04294 2.6523,127.918 -40.2696,246.7578 -113.6992,359.5078 l -110.6211,-209.289 c -17.7696,12.2304 -35.3477,24.5312 -52.6485,36.9609 -11.3789,-5.0117 -22.4492,-10.3711 -33.2109,-16.1016 l 0.1601,0.09 -35.3593,25.3515 c -42.3711,-27.1211 -79.6016,-58.1015 -111.5508,-93.8515 l -1.7109,-1.918 592.6796,-530.90232 0.4532,0.51953 c 38.7382,43.25 105.1875,46.90235 148.4297,8.17188 43.2382,-38.74219 46.8906,-105.19141 8.1601,-148.42969 l -0.4726,-0.51172 43.0703,-38.57031 0.4609,0.51172 c 40.2617,44.96094 83.0781,84.8789 127.1289,119.41797"
         id="path133"
         style="fill:#ffffff" />
      <path
         fill-rule="evenodd"
         fill="#e71e29"
         fill-opacity="1"
         d="m 2284.4179,656.89834 -0.012,-0.0234 c -38.2812,-42.72656 -71.539,-87.34766 -99.5898,-132.56641 79.1016,-20.96093 165.6406,-26.93359 261.9219,-12.82031 l -162.3203,145.41016"
         id="path134"
         style="fill:#ffffff;fill-opacity:1" />
      <path
         fill-rule="evenodd"
         fill="#a82431"
         fill-opacity="1"
         d="m 2446.7382,511.48818 c 3.4765,97.26953 -11.9414,182.62891 -41.4414,258.9375 -41.8789,-32.83984 -82.5899,-70.80078 -120.8789,-113.52734 l 162.3203,-145.41016"
         id="path135"
         style="display:inline;fill:#ffffff;fill-opacity:1" />
      <path
         fill-rule="evenodd"
         fill="#f07615"
         fill-opacity="1"
         d="m 1568.0585,1512.6054 c -80.0313,113.7929 -338.6719,173.2031 -445.793,185.4921 24.5899,-102.8906 111.082,-357.2304 234,-423.5 0.4609,1.461 1.0313,2.8985 1.7227,4.3204 12.1289,25.0273 25.5273,48.5273 40.1797,70.6171 14.3906,21.6914 30.1796,42.0899 47.3476,61.3008 17.1602,19.211 35.4922,36.9219 54.9727,53.2696 19.1367,16.0625 39.7265,31.1093 61.7265,45.25 1.8438,1.3007 3.8008,2.3906 5.8438,3.25"
         id="path136"
         style="fill:#ffffff" />
      <g
         clip-path="url(#clip-1)"
         id="g138"
         transform="translate(38.636622,38.636622)"
         style="fill:#ffffff">
        <g
           clip-path="url(#clip-2)"
           id="g137"
           style="fill:#ffffff">
          <path
             fill-rule="nonzero"
             fill="url(#linear-pattern-0)"
             d="m 1338.9805,1121.1563 299.9101,320.5078 -321.0625,300.4297 -299.9101,-320.5079 z m 0,0"
             id="path137"
             style="fill:#ffffff" />
        </g>
      </g>
      <path
         fill-rule="evenodd"
         fill="#f07615"
         fill-opacity="1"
         d="m 1758.8983,1802.9374 c 106.2891,235.168 115.4102,444.8711 2.7891,545.7578 -178.6094,159.9805 -595.6524,-14.2578 -931.5,-389.1875 C 494.33974,1584.578 366.87099,1150.9452 545.47256,990.95693 c 112.625,-100.8789 320.0625,-68.82031 542.16404,62.60157 -189.98436,-102.74219 -364.16795,-123.23047 -461.55076,-36 -164.48438,147.3398 -47.5586,546.1797 261.16797,890.8281 308.72259,344.6602 692.34369,504.6094 856.83199,357.2617 97.3789,-87.2304 96.1094,-262.6133 14.8125,-462.7109"
         id="path138"
         style="fill:#ffffff" />
      <path
         fill-rule="evenodd"
         fill="#f07615"
         fill-opacity="1"
         d="m 1267.8554,1267.5272 c -211.9805,-167.0625 -433.85941,-224.5195 -545.10159,-124.8711 -88.60938,79.3789 -85.82422,239.4688 -8.85938,417.0586 -58.46094,-151.289 -55.90234,-285.3086 20.71485,-353.9375 101.57812,-91 303.12112,-40 496.52732,110.5078 z m -53.0391,851.3985 c 168.0898,95.9804 326.9101,116.3007 415.5195,36.9218 111.2617,-99.6523 78.4492,-326.5507 -64.4101,-555.5898 l -52.4805,31.168 c 128.4297,208.7695 157.043,414.7226 55.4609,505.7226 -76.6211,68.6289 -210.1093,56.4766 -354.0898,-18.2226"
         id="path139"
         style="fill:#ffffff" />
      <path
         fill-rule="evenodd"
         fill="#f07615"
         fill-opacity="1"
         d="m 1446.2655,1748.1757 c 52,120.0117 53.8828,228.1797 -5.9883,281.8125 -94.9492,85.0586 -309.2109,0.75 -478.55464,-188.3008 -169.34766,-189.0508 -229.65625,-411.2617 -134.70313,-496.3203 59.875,-53.6289 167.1875,-39.9024 280.76557,24.9492 -97.2851,-50.4688 -187.48432,-58.6797 -239.25385,-12.3086 -87.44922,78.3281 -32.14453,282.7187 123.52734,456.5 155.66791,173.7891 352.75781,251.168 440.20701,172.8398 51.7695,-46.3828 53.5,-136.9296 14,-239.1601 v -0.012"
         id="path140"
         style="fill:#ffffff" />
      <path
         fill-rule="evenodd"
         fill="#e4f5fd"
         fill-opacity="1"
         d="M 2156.6366,565.53506 C 1880.2772,705.66787 1584.6483,1042.535 1466.1952,1196.246 1592.1757,1003.3163 1857.2968,689.15615 2156.6366,565.53506"
         id="path141"
         style="fill:none" />
    </g>
  </g>
</svg>
