<?xml version="1.0" encoding="UTF-8" standalone="no"?>
<!-- Created with Inkscape (http://www.inkscape.org/) -->

<svg
   width="389.73959mm"
   height="407.25162mm"
   viewBox="0 0 389.73959 407.25162"
   version="1.1"
   id="svg1"
   inkscape:version="1.4.2 (2aeb623e1d, 2025-05-12)"
   sodipodi:docname="AERO_FTP_simbol_rc.ink.svg"
   inkscape:export-filename="../3bae402a/AeroFTP_simbol_light.png"
   inkscape:export-xdpi="96"
   inkscape:export-ydpi="96"
   xmlns:inkscape="http://www.inkscape.org/namespaces/inkscape"
   xmlns:sodipodi="http://sodipodi.sourceforge.net/DTD/sodipodi-0.dtd"
   xmlns="http://www.w3.org/2000/svg"
   xmlns:svg="http://www.w3.org/2000/svg">
  <sodipodi:namedview
     id="namedview1"
     pagecolor="#ffffff"
     bordercolor="#000000"
     borderopacity="0.25"
     inkscape:showpageshadow="2"
     inkscape:pageopacity="0.0"
     inkscape:pagecheckerboard="0"
     inkscape:deskcolor="#d1d1d1"
     inkscape:document-units="mm"
     inkscape:zoom="0.31685387"
     inkscape:cx="-429.21994"
     inkscape:cy="923.13848"
     inkscape:window-width="2560"
     inkscape:window-height="1315"
     inkscape:window-x="0"
     inkscape:window-y="32"
     inkscape:window-maximized="1"
     inkscape:current-layer="layer1"
     showgrid="false">
    <inkscape:page
       x="0"
       y="0"
       width="389.73959"
       height="407.25162"
       id="page2"
       margin="0"
       bleed="0" />
  </sodipodi:namedview>
  <defs
     id="defs1" />
  <g
     inkscape:label="Layer 1"
     inkscape:groupmode="layer"
     id="layer1"
     transform="translate(97.443858,70.488559)">
    <path
       d="m 99.855288,-70.431906 c -18.93988,-0.51852 -40.805309,2.546751 -58.431059,8.191231 -11.15655,3.57279 -24.406131,9.136741 -32.938041,13.832231 -13.15832,7.24163 -22.975559,14.009791 -33.861499,23.344312 -9.45792,8.110019 -20.217362,19.2879193 -26.838672,27.8825353 -5.17609,6.71867 -12.210373,16.9977917 -15.095203,22.0586017 -9.18223,16.108222 -13.940779,26.726871 -19.208129,42.8625 -3.6464,11.170104 -7.555008,28.562399 -9.038208,40.216665 -1.5823,12.43294 -2.29702,29.3011 -1.651579,38.9816 2.28345,34.24745 9.864268,61.18518 25.266158,89.78212 2.94069,5.46002 4.706045,8.29553 9.554455,15.34583 7.2684,10.56934 13.985986,18.61115 23.594426,28.24479 10.99384,11.02267 21.207209,19.37023 32.2006184,26.31777 17.7208606,11.1991 33.5723826,18.26917 52.8246826,23.56136 9.76895,2.68534 24.575977,5.28713 34.152437,6.00118 2.75336,0.20529 5.64108,0.43635 6.41718,0.51315 0.77613,0.0766 5.697016,0.0792 10.935766,0.005 9.350929,-0.13203 15.559419,-0.5064 20.461279,-1.23403 12.45111,-1.84825 17.19447,-2.73292 24.69462,-4.60437 18.19957,-4.54112 34.893,-11.67189 52.56372,-22.45289 27.0387,-16.49646 51.33801,-41.59491 66.85328,-69.05212 18.23159,-32.26422 27.57116,-69.60944 26.6883,-106.71545 -0.25236,-10.60644 -0.57961,-14.98823 -1.8309,-24.51788 -1.94419,-14.806288 -4.6685,-26.86057 -9.74721,-43.125018 l -1.78955,-5.730399 1.41076,-2.383317 c 1.76033,-2.97457 5.01733,-9.465117 6.25492,-12.464873 1.57935,-3.828217 4.10776,-10.594094 4.99969,-13.378511 1.02783,-3.208679 3.99821,-13.639188 3.99821,-14.039453 0,-0.36981 -3.50221,-0.937603 -11.64167,-1.888257 l -6.52622,-0.762228 -10.93628,-0.06976 -10.93628,-0.07028 -4.93872,-6.5132972 c -5.06565,-6.680467 -9.13082,-11.6863973 -12.26902,-15.1091553 -6.45019,-7.0351355 -8.69718,-9.3266065 -12.77803,-13.0286625 -4.05791,-3.681222 -9.8852,-8.617324 -14.64045,-12.401827 -6.95908,-5.53843 -19.86251,-13.436813 -30.51545,-18.678963 -24.89264,-12.24929 -48.97162,-18.145892 -77.258332,-18.920292 z m 12.898442,24.610384 c 0.18796,0.0069 0.32912,0.02502 0.41806,0.05478 0.24329,0.08141 -0.43093,0.434969 -1.4981,0.785999 -5.48116,1.80295 -17.006255,7.410773 -24.517885,11.929504 -5.90666,3.55323 -8.50888,5.366476 -14.97583,10.435022 -10.3387,8.10306 -21.903547,20.3055292 -29.631267,31.2652752 -6.98187,9.9019758 -13.735516,22.8056598 -17.725016,33.8666668 -4.58338,12.707622 -6.774159,22.345352 -8.459949,37.217883 -0.58926,5.198422 -0.578756,21.486402 0.01705,26.635062 1.92537,16.63786 5.376694,30.65744 10.485664,42.59378 0.65926,1.54025 1.198894,2.91028 1.198894,3.04426 0,0.13398 -1.309343,1.19121 -2.909383,2.34973 -8.64734,6.26115 -23.5041277,17.65796 -31.8238977,24.41246 -1.7374077,1.4105 -3.2940366,2.56471 -3.4592203,2.56471 -0.69138,0 -4.381694,-9.09378 -7.358724,-18.13378 -3.81354,-11.5801 -5.693444,-19.75435 -7.199044,-31.30248 l -0.890902,-6.83163 -0.216524,-9.34878 c -0.44817,-19.327514 2.10476,-36.478691 8.00778,-53.796715 6.95419,-20.401886 16.3277007,-37.109985 30.237431,-53.8980019 4.20694,-5.077454 16.350174,-16.9873177 21.609534,-21.1940551 16.82779,-13.459801 34.898826,-22.673172 56.091666,-28.597738 6.403332,-1.790087 19.780143,-4.155611 22.599663,-4.051949 z m -45.014311,2.451013 c 0.39534,0.0083 -0.823749,0.634545 -2.708879,1.391647 -3.34449,1.343205 -12.794389,6.105641 -17.738969,8.940022 -1.35819,0.778558 -5.094069,3.1094 -8.301819,5.179529 -3.20779,2.070129 -7.335099,4.534078 -9.172049,5.475635 -1.83694,0.941556 -3.895845,2.054051 -4.574915,2.472201 -0.67912,0.41815 -3.298463,1.983576 -5.820833,3.47834 -5.82477,3.451788 -5.45632,3.222739 -8.80153,5.472018 -3.3201606,2.2324311 -11.9134132,8.5805452 -12.8209232,9.4712562 -0.3439,0.337532 -1.493586,1.26489408 -2.554366,2.06085608 C -10.078304,4.5654433 -20.800229,15.100222 -27.429449,22.849222 c -9.19847,10.752244 -18.960662,25.218147 -24.580412,36.423617 -2.48112,4.947197 -7.807071,16.864341 -8.119401,18.167883 -0.04649,0.194029 -0.247138,0.749481 -0.445968,1.23455 -0.19883,0.485068 -0.959979,2.628193 -1.691369,4.7625 -0.73138,2.134306 -1.343424,3.622961 -1.360124,3.307808 -0.01668,-0.315156 0.217758,-1.267655 0.520898,-2.116666 0.30315,-0.849013 0.61153,-1.94062 0.68523,-2.425692 0.07374,-0.485068 0.425901,-1.675693 0.782381,-2.645833 0.35648,-0.970137 0.636268,-2.189923 0.621668,-2.710429 -0.0146,-0.520507 0.09492,-0.871051 0.243396,-0.779281 0.28119,0.173784 0.749124,-0.808386 2.385384,-5.006413 l 0.973584,-2.498555 h -0.47749 c -0.26269,0 -0.457666,0.171694 -0.433566,0.381889 0.11393,0.994976 -0.07422,1.637614 -0.417029,1.425752 -0.2073,-0.128091 -0.28693,-0.466576 -0.17725,-0.752408 0.10969,-0.285832 -0.06589,-0.785228 -0.390157,-1.109493 l -0.589628,-0.589629 0.232544,1.16272 c 0.14584,0.729229 0.103248,1.082456 -0.114722,0.947746 -0.30274,-0.187082 -0.51473,0.533778 -0.38964,1.326017 0.02298,0.145521 -0.196269,0.264584 -0.487309,0.264584 -0.29104,0 -0.529166,0.143587 -0.529166,0.31936 0,0.175776 -0.369035,0.145693 -0.820105,-0.06718 l -0.820105,-0.387056 0.167431,-0.875916 0.167432,-0.875915 0.642855,0.79375 c 0.35356,0.436629 0.814123,0.688356 1.023193,0.559139 0.24162,-0.149325 0.104472,-0.473942 -0.375688,-0.890385 -0.4482,-0.388694 -0.647049,-0.830281 -0.488859,-1.086239 0.1933,-0.312753 0.08123,-0.355255 -0.408243,-0.153479 -0.37138,0.153099 -0.873681,0.285873 -1.116211,0.295073 -0.51987,0.01978 -0.605347,0.605131 -0.08837,0.605131 0.19403,0 0.35295,0.307682 0.35295,0.683679 0,0.466161 -0.224273,0.666693 -0.705383,0.630453 -0.83955,-0.06324 -0.959025,-0.608749 -0.133325,-0.608749 h 0.572058 l -0.470773,-0.567407 -0.470772,-0.567407 0.604098,-0.441317 c 0.33222,-0.242927 0.604097,-0.58782 0.604097,-0.765845 0,-0.491646 -1.445896,-1.624053 -1.709456,-1.338936 -0.12707,0.13747 -0.03222,0.32059 0.210323,0.40721 0.24253,0.08662 0.4408,0.401586 0.4408,0.700216 v 0.543119 l -0.496611,-0.411861 -0.49661,-0.412378 -0.417546,1.265556 c -0.44038,1.334381 -0.24959,2.490241 0.34985,2.119767 0.43047,-0.266071 0.455242,0.176547 0.04599,0.822172 l -0.29869,0.470772 -0.216524,-0.823722 -0.216525,-0.823722 -0.532267,0.757576 c -0.29271,0.416454 -0.948159,1.924409 -1.456759,3.351217 -0.9029,2.532943 -1.904636,4.273326 -1.391646,2.41794 0.46633,-1.686665 2.50074,-7.231024 3.55999,-9.701733 0.24955,-0.582083 0.766663,-1.854616 1.149283,-2.828251 0.38261,-0.973637 2.269319,-4.942561 4.192509,-8.819617 16.97687,-34.224459 44.105117,-62.5764599 77.540487,-81.038464 8.76169,-4.837944 24.107293,-11.313271 32.808333,-13.8436 4.51144,-1.311966 16.943308,-4.417649 17.625798,-4.403349 z M 252.78445,26.427815 c 4.75192,-0.414081 23.20046,-0.274687 23.93756,0.180867 0.65527,0.404984 -2.2039,7.916773 -6.39082,16.789157 -6.74381,14.290537 -18.14658,29.337514 -30.38161,40.091609 -7.92858,6.9689 -10.20407,8.494491 -41.49256,27.820012 -21.17585,13.07937 -24.17472,14.94876 -32.20217,20.07526 -3.92306,2.50532 -8.91884,5.6363 -11.10165,6.95771 l -3.96875,2.40244 v -2.90525 -2.90577 l 4.85087,-3.21685 c 2.66787,-1.76917 6.12069,-3.97507 7.67292,-4.90203 1.55223,-0.92696 5.04491,-3.11367 7.76128,-4.85914 4.39995,-2.82726 12.02682,-7.59065 25.04705,-15.64349 2.32833,-1.44005 6.85271,-4.30092 10.05417,-6.357747 3.20146,-2.056834 8.20209,-5.189858 11.1125,-6.961849 5.98586,-3.644453 10.90179,-7.061925 16.15612,-11.231872 4.26601,-3.385622 14.21899,-13.231954 17.94877,-17.756539 4.11297,-4.989435 11.19894,-15.940468 14.18725,-21.925277 1.47625,-2.956499 2.68407,-5.45681 2.68407,-5.55625 0,-0.673675 -0.88239,0.118759 -2.05878,1.847949 -2.43933,3.585601 -12.11304,14.204127 -18.39888,20.196183 -3.35844,3.201458 -6.8629,6.555224 -7.78712,7.452776 -0.92424,0.897548 -2.40811,2.155085 -3.29799,2.794144 -0.88987,0.639056 -1.61799,1.271886 -1.61799,1.406633 0,0.13475 -0.67502,0.69989 -1.49965,1.255737 -1.97681,1.332492 -4.41951,3.242834 -5.73247,4.482931 -1.14634,1.082712 -5.981,4.350237 -7.92045,5.353161 -1.16705,0.60351 -3.37069,2.018802 -14.935,9.591146 -3.06321,2.005801 -5.62691,3.646806 -5.69681,3.646806 -0.19979,0 -4.34484,2.556828 -7.25486,4.475179 -1.45521,0.959303 -4.07458,2.599889 -5.82083,3.645769 -1.74625,1.04588 -4.31779,2.70262 -5.7149,3.68143 -2.75122,1.92751 -4.70587,3.13107 -5.14542,3.16777 -0.15261,0.0127 -0.39073,0.1995 -0.52916,0.41496 -0.31077,0.48364 -2.43957,1.59757 -2.80345,1.46709 -0.14618,-0.0524 -0.21678,-0.30954 -0.15658,-0.57154 0.0609,-0.26523 -0.0586,-0.37231 -0.26975,-0.24184 -0.2086,0.12889 -0.314,0.59475 -0.2341,1.03508 0.0927,0.51151 -0.0283,0.80046 -0.33538,0.80046 -0.26807,0 -0.44779,-0.30779 -0.40669,-0.69608 0.0405,-0.38283 -0.14697,-0.7741 -0.41651,-0.8692 -0.26914,-0.0951 -0.39413,-0.0168 -0.27647,0.17364 0.11766,0.19039 -0.4157,0.53469 -1.18546,0.76532 -0.76975,0.23062 -1.3994,0.56658 -1.3994,0.74673 0,0.18013 -0.22411,0.24159 -0.49816,0.13642 -0.27795,-0.10666 -0.55113,0.0501 -0.61753,0.35451 -0.0825,0.37844 -0.27459,0.44897 -0.6258,0.22944 -0.34253,-0.21412 -0.39947,-0.47384 -0.17622,-0.8015 0.39709,-0.58283 -0.4046,0.30067 -2.61276,2.87889 -2.03565,2.37681 -4.36861,4.64582 -4.56975,4.44469 -0.0829,-0.083 0.22728,-0.51697 0.68937,-0.96428 4.26861,-4.13214 11.21913,-14.69329 15.44608,-23.469886 0.86194,-1.789673 1.49525,-3.326142 1.40715,-3.414262 -0.19949,-0.199504 -7.35514,0.376698 -10.91199,0.878499 -8.27093,1.166862 -18.0207,3.94586 -21.7873,6.210474 -1.1139,0.669711 -3.48937,2.317605 -5.27927,3.661795 -1.78988,1.34418 -3.31687,2.44378 -3.39307,2.44378 -0.0762,0 -1.15289,-0.67452 -2.39262,-1.49914 -1.23973,-0.82461 -3.79387,-2.21351 -5.67562,-3.08663 -1.88174,-0.873126 -3.428,-1.707195 -3.437,-1.853118 -0.0161,-0.271187 1.13515,-1.135979 8.09666,-6.084383 3.62934,-2.579815 9.18697,-6.675159 37.69899,-27.780734 27.31334,-20.218256 30.63978,-22.434946 40.97218,-27.301176 12.86515,-6.059088 26.99208,-9.733076 42.68576,-11.100614 z m -22.21983,20.907251 c -3.69711,-0.188315 -7.56477,0.0038 -10.5885,0.627869 -6.4393,1.329102 -14.21631,6.164807 -19.29443,11.9972 -3.01342,3.461007 -6.51591,8.602136 -8.30388,12.18892 -1.62671,3.263215 -4.85707,11.264472 -4.85707,12.030274 v 0.604614 l 6.7908,-0.220658 c 16.48267,-0.535747 27.92859,-4.503996 35.71978,-12.384774 5.08198,-5.140448 8.29541,-11.369837 10.38128,-20.12487 l 0.64544,-2.708362 -0.92759,-0.355534 c -2.34177,-0.89741 -5.86872,-1.466364 -9.56583,-1.654679 z m -8.2951,6.116939 h 5.00951 c 3.2345,0 5.14962,0.140088 5.40536,0.395842 l 0.39636,0.396358 -0.40463,1.544092 c -0.606,2.314938 -2.98646,7.000948 -4.36872,8.599475 l -1.2206,1.411283 -0.4284,-0.419096 -0.42891,-0.418579 0.37413,-1.475362 c 0.22179,-0.87367 0.2511,-1.78143 0.0713,-2.226737 l -0.30386,-0.751892 -0.0222,0.58446 c -0.0155,0.405765 -0.23676,0.527902 -0.72399,0.400492 -0.38587,-0.100907 -0.63937,-0.284265 -0.56327,-0.407727 0.076,-0.123463 -0.65598,-0.492373 -1.62626,-0.819588 l -1.76371,-0.594796 0.64182,0.709518 0.64182,0.709 -0.51935,-0.114205 c -0.28559,-0.06286 -0.72675,-0.392188 -0.9803,-0.731738 -0.25352,-0.339548 -0.64083,-0.617533 -0.86093,-0.617533 -0.22011,0 -0.10987,0.212994 0.24546,0.472839 l 0.64647,0.472323 -0.63768,0.244429 c -0.3507,0.13458 -0.80164,0.08102 -1.00201,-0.119372 -0.2004,-0.200388 -0.84845,-0.371756 -1.44022,-0.380856 l -1.07642,-0.01654 1.62005,-0.63407 c 1.79163,-0.700965 3.14475,-1.010021 5.78725,-1.322917 3.01598,-0.357118 2.28251,-0.564394 -1.0573,-0.298689 -2.04266,0.16251 -4.37008,0.650137 -6.52622,1.366841 l -3.35122,1.113627 -3.62355,2.638082 c -1.99297,1.450871 -4.11583,2.992347 -4.71754,3.425631 -0.60175,0.433287 -1.23333,0.702051 -1.40353,0.596863 -0.17018,-0.105188 -0.30954,0.01807 -0.30954,0.273885 0,0.255821 -0.31733,0.663543 -0.70539,0.905888 -1.03318,0.645219 -0.88621,0.284758 0.91261,-2.236039 3.64377,-5.106307 10.36291,-10.149121 15.84399,-11.890748 z m -53.0934,1.001489 c 0,0.119468 -1.70621,1.355509 -3.79202,2.746603 -2.08579,1.391097 -6.17378,4.306787 -9.0842,6.479191 -16.99769,12.687483 -19.38145,14.323287 -19.93883,14.045654 0.004,-0.01726 0.007,-0.03509 0.007,-0.05323 0,-0.163846 -2.26219,-0.40412 -5.02709,-0.534334 -7.44381,-0.350521 -17.49184,-0.567702 -16.57521,-0.358117 0.43944,0.10048 0.70653,0.332927 0.59324,0.516247 -0.1133,0.18332 -0.39357,0.227862 -0.6227,0.09922 l -0.41651,-0.234094 0.41961,0.453719 0.4191,0.453719 -0.77205,0.644405 c -0.42479,0.354618 -0.57375,0.650307 -0.33124,0.656807 0.24255,0.0065 0.4408,-0.147035 0.4408,-0.341064 0,-0.194027 0.15893,-0.35295 0.35295,-0.35295 0.55634,0 0.41079,0.960876 -0.17984,1.187524 -0.29284,0.112373 -0.4911,0.401864 -0.4408,0.643889 0.0552,0.265543 -0.2952,0.444635 -0.88315,0.451135 -0.67821,0.0075 -1.11478,0.281423 -1.43712,0.901754 -0.47842,0.920692 -0.40098,1.899364 0.12454,1.57458 0.16407,-0.101388 0.38942,-0.0365 0.50075,0.143661 0.29237,0.473043 -0.68781,0.265183 -1.35289,-0.286804 -0.3982,-0.330474 -0.56483,-0.347306 -0.56483,-0.05684 0,0.272619 -0.44745,0.351809 -1.32291,0.233577 -0.47749,-0.06447 -0.76165,-0.08231 -0.79065,-0.05581 l -5.2e-4,5.16e-4 -5.1e-4,5.17e-4 -5.2e-4,5.17e-4 v 5.17e-4 l -5.2e-4,5.16e-4 c -4e-5,1.8e-4 3e-5,0.0014 0,0.0016 v 5.16e-4 5.17e-4 5.17e-4 c 0.003,0.01485 0.06,0.03907 0.17518,0.07183 0.38806,0.11035 0.8744,0.337123 1.08056,0.503845 0.20616,0.166722 2.58741,0.785639 5.29167,1.37511 2.70425,0.589473 5.5002,1.251293 6.21357,1.470712 0.71337,0.219403 1.63556,0.310157 2.04897,0.202054 l 0.75138,-0.19637 -0.4191,0.504879 c -0.2305,0.277773 -1.491,1.218146 -2.80138,2.089278 -1.31037,0.87113 -2.59946,1.563841 -2.86442,1.539441 -1.08434,-0.09986 -8.94995,-1.910726 -20.766695,-4.780587 -6.888,-1.672842 -14.177185,-3.414701 -16.198495,-3.871081 -2.02131,-0.45638 -3.727066,-0.881772 -3.790466,-0.945162 -0.06339,-0.06339 5.083201,-3.625204 11.436511,-7.91528 6.35333,-4.290078 12.106685,-8.204149 12.785785,-8.69766 l 1.23506,-0.897103 12.34705,-1.756998 c 6.79095,-0.966367 20.68144,-3.02735 30.86789,-4.580083 18.95309,-2.889046 23.28333,-3.462168 23.28333,-3.080949 z m -33.15611,23.511744 c -0.007,-0.005 -0.27573,0.20435 -0.28164,0.198437 -0.10652,-0.106517 -0.008,-0.193786 0.21807,-0.193786 0.0218,0 0.0427,-0.0023 0.0636,-0.0047 z m 27.6102,21.90719 c 0.67255,-0.0031 -0.26998,0.833412 -2.92747,2.615342 -3.11899,2.0913 -4.12911,3.07154 -2.14664,2.08256 0.56166,-0.28019 1.21464,-0.74245 1.45107,-1.02733 0.23644,-0.28484 0.57053,-0.43137 0.74259,-0.32504 0.17203,0.10633 0.31264,0.0436 0.31264,-0.13953 0,-0.18317 0.39706,-0.59322 0.88212,-0.91105 0.48509,-0.31783 0.8816,-0.51103 0.8816,-0.42943 0,0.43176 -7.65028,10.76028 -8.91883,12.04112 -2.52754,2.552 -19.17382,10.79625 -32.15825,15.92668 -1.15247,0.45535 -2.2362,0.82786 -2.40812,0.82786 -0.50705,0 5.80092,-6.82332 11.53315,-12.47573 6.05332,-5.96902 14.99974,-13.3411 17.64491,-14.53968 0.98097,-0.44449 4.48244,-1.38338 7.78092,-2.08618 3.29848,-0.70279 6.35424,-1.36481 6.7908,-1.471742 0.23469,-0.05749 0.41496,-0.08728 0.53951,-0.08785 z m -48.34434,4.555792 c 1.59285,0 10.24074,3.73908 12.26282,5.302 l 0.8816,0.68162 -4.40955,4.22248 c -2.42535,2.32237 -4.56848,4.21976 -4.7625,4.21576 -0.19402,-0.004 -0.9876,-0.48734 -1.76372,-1.07539 -2.5317,-1.91824 -6.64678,-4.1637 -9.43612,-5.14904 -1.50321,-0.53101 -2.73368,-1.07184 -2.73368,-1.20199 -0.001,-0.38217 9.41545,-6.99544 9.96115,-6.99544 z m 96.40704,9.24957 c 0.11805,0.13372 -3.58262,6.61292 -6.50452,11.38793 -2.97862,4.86778 -9.79929,16.2896 -15.90497,26.63455 -6.66983,11.3008 -11.58205,19.48642 -12.09383,20.15174 -0.24215,0.3148 -2.97758,2.23288 -6.0787,4.26279 -3.10116,2.02991 -8.02018,5.249 -10.9306,7.15305 -2.91041,1.90407 -6.19217,4.15265 -7.2931,4.99712 -2.21037,1.69548 -2.54249,1.82975 -2.27376,0.91829 0.1001,-0.33957 0.34606,-1.80816 0.54622,-3.26337 0.20016,-1.45521 0.76925,-5.18601 1.26452,-8.29045 0.4953,-3.10443 1.37621,-8.81944 1.95802,-12.7 1.09564,-7.30735 2.3306,-14.96678 2.6231,-16.27136 0.0967,-0.43129 1.11639,-1.36747 2.40192,-2.20503 2.64614,-1.72404 3.1934,-1.83511 2.70474,-0.54984 -0.18931,0.49792 -0.59281,2.60118 -0.89658,4.67413 -0.30374,2.07294 -0.87805,5.8327 -1.27641,8.35505 -0.39833,2.52236 -0.86165,5.45907 -1.0294,6.52622 -1.4282,9.08701 -2.27954,15.52256 -2.05362,15.52256 0.14923,0 1.08345,-0.73913 2.07585,-1.64228 0.99242,-0.90313 2.34054,-2.05388 2.99568,-2.55746 1.53366,-1.17883 2.32271,-2.8991 6.32829,-13.79192 1.67368,-4.55135 4.70762,-12.37184 4.85656,-12.51862 0.0665,-0.0656 0.55729,-0.0353 1.09088,0.0672 l 0.97049,0.18603 0.0419,0.92915 c 0.023,0.51096 0.023,1.0482 0,1.19372 -0.023,0.14552 0.13524,0.26459 0.35191,0.26459 0.22405,0 0.31197,-0.31307 0.20412,-0.72554 -0.1365,-0.52196 -0.0734,-0.63323 0.22376,-0.39636 0.22772,0.18155 0.72996,0.20169 1.1188,0.045 0.49757,-0.20055 0.5494,-0.30388 0.17621,-0.35088 -0.29104,-0.0366 -0.64823,-0.0478 -0.79375,-0.0248 -0.14552,0.023 -0.26458,-0.11707 -0.26458,-0.31109 0,-0.45884 1.30395,-0.45884 1.5875,0 0.11994,0.19402 0.40712,0.33983 0.63821,0.32453 0.30287,-0.0201 0.29676,-0.0774 -0.0212,-0.20568 -0.76329,-0.308 -0.47891,-0.82475 0.45372,-0.82475 h 0.894 l -0.37724,-0.70538 -0.37775,-0.70539 0.4532,-0.0227 c 0.24934,-0.0123 0.0567,-0.19854 -0.4284,-0.41392 l -0.88212,-0.39119 0.84233,-0.14625 c 0.46312,-0.0803 0.95177,0.0313 1.08572,0.24805 0.34965,0.56573 2.12907,-0.91317 2.12907,-1.7694 0,-0.45784 0.24463,-0.67955 0.74879,-0.67955 h 0.74879 l -0.44596,-0.53743 -0.44597,-0.53744 0.63717,0.24443 c 0.40656,0.15612 0.55385,0.10994 0.40669,-0.12816 -0.12671,-0.20502 -0.007,-0.55812 0.26614,-0.78496 l 0.49712,-0.4129 -0.0982,0.63717 c -0.0947,0.61475 0.36002,1.14997 0.9865,1.16117 0.1663,0.003 0.2109,-0.23295 0.0992,-0.52399 -0.30795,-0.80251 0.12257,-1.5875 0.87075,-1.5875 0.82791,0 0.84507,0.4596 0.062,1.65467 l -0.60565,0.9245 0.5178,-0.17209 c 0.48596,-0.16149 1.14359,-1.18671 5.27771,-8.22792 0.91136,-1.55222 2.98272,-5.04489 4.60282,-7.76128 1.62009,-2.71639 3.60761,-6.18794 4.41679,-7.71478 l 1.47123,-2.77605 4.68136,-2.96726 c 2.57487,-1.63203 4.72071,-2.92296 4.76871,-2.86856 z m -117.100867,4.92011 1.573548,0.3576 c 3.77036,0.85733 6.003089,1.55561 8.897129,2.78278 3.54759,1.5043 8.00239,4.10045 8.28063,4.82554 0.10411,0.27128 -0.15747,0.96247 -0.58136,1.53583 -0.94761,1.2817 -7.08587,11.5244 -7.08587,11.82408 0,0.29076 2.86177,-0.0749 10.05417,-1.28468 3.64348,-0.61286 6.12573,-0.8814 6.32416,-0.68471 0.57542,0.57033 1.58008,7.80751 1.59008,11.45305 0.01,3.69076 -0.43233,7.65917 -1.07228,9.62318 l -0.37672,1.15652 -2.7032,1.81074 c -1.48685,0.99608 -3.97353,2.71725 -5.52576,3.82458 -4.08459,2.91387 -18.502682,13.2431 -24.870832,17.81751 -5.58117,4.0091 -33.281754,24.76361 -38.136174,28.57345 -1.47513,1.15771 -4.146972,3.21621 -5.937622,4.5744 -4.32284,3.27885 -13.161277,10.34086 -21.150647,16.89975 -3.56776,2.92896 -7.467557,6.11934 -8.666137,7.08949 -2.08842,1.69037 -5.6678088,4.75468 -8.3002688,7.1055 -0.68256,0.60955 -2.0496007,1.80017 -3.0375407,2.64584 -0.98795,0.84566 -3.87383199,3.4025 -6.413562,5.68234 -2.53974,2.27983 -4.6844006,4.14548 -4.7656006,4.14548 -0.08117,0 -1.1651953,0.99185 -2.4091553,2.20452 l 5.168e-4,10e-4 c -4.0970494,3.99402 -5.6053424,5.3541 -5.6053424,5.05499 0,-0.16232 1.461264,-1.72385 3.247864,-3.47007 l 3.2483801,-3.175 -0.9549805,-0.76171 c -1.0722396,-0.85498 -1.2104106,-1.26452 -0.4263306,-1.26452 0.2910398,0 0.5291667,0.24785 0.5291667,0.55035 0,0.30259 0.1665533,0.44716 0.3700033,0.32143 0.2521,-0.15584 0.2362638,-0.39029 -0.050126,-0.73536 -0.63464,-0.7647 -0.092788,-1.01779 0.6304525,-0.29455 0.4505,0.45051 0.5058399,0.6725 0.1932699,0.77669 -0.41191,0.13732 -0.6420528,1.14567 -0.2614828,1.14567 0.09702,0 0.497525,-0.32183 0.890385,-0.71469 l 0.714685,-0.71416 -0.8909017,-0.82528 c -1.07514,-0.99639 -1.1143916,-1.24667 -0.1850016,-1.17667 0.38806,0.0292 0.7053833,0.17801 0.7053833,0.33073 0,0.15275 0.35718,0.28019 0.79375,0.28319 l 0.79375,0.005 -0.5291667,0.3421 -0.5291666,0.34209 0.5798095,0.005 c 0.97557,0.009 1.0582394,-0.96414 0.1023194,-1.20406 -0.47215,-0.11851 -0.8583456,-0.46498 -0.8583456,-0.7705 0,-0.30548 -0.31785,-0.63853 -0.7059,-0.74 -0.38806,-0.10149 -0.7053833,-0.24009 -0.7053833,-0.30799 0,-0.2277 7.4420933,-7.26317 10.2303833,-9.67125 0.48507,-0.41894 1.51728,-1.35285 2.2934,-2.07532 2.43681,-2.26841 5.2464586,-4.75219 7.0321284,-6.21616 1.53221,-1.25619 2.906958,-2.4001 8.613428,-7.16752 0.84401,-0.70514 1.836363,-1.49309 2.205033,-1.75132 1.16912,-0.81888 0.721717,-1.22462 -0.510563,-0.46302 -0.64933,0.40134 -1.30973,0.6127 -1.46761,0.46974 -0.15785,-0.14295 -0.163503,-0.0462 -0.0124,0.21497 0.19617,0.33895 0.08621,0.43839 -0.384472,0.34779 -0.36252,-0.0698 -0.658875,-0.35623 -0.658875,-0.63666 0,-0.54607 -2.193052,-1.16585 -2.813782,-0.7953 -0.19882,0.1187 -0.1433,-0.0531 0.12299,-0.38137 l 0.484208,-0.59686 H 15.93793 c -0.51599,0 -0.732263,0.40589 -0.612883,1.15032 0.02367,0.14761 -0.268563,0.0736 -0.649573,-0.16434 -0.38101,-0.23797 -0.537255,-0.52853 -0.347265,-0.64595 0.38135,-0.23566 -0.853491,-0.94333 -1.961121,-1.12396 l -0.705383,-0.11524 0.07906,-0.87333 c 0.04356,-0.48027 -0.0096,-0.67507 -0.117823,-0.43253 -0.10824,0.24252 -0.381871,0.43543 -0.608231,0.42943 -0.22637,-0.006 -0.03689,-0.32378 0.421163,-0.70539 0.45806,-0.38161 0.647099,-0.69401 0.420129,-0.69401 -0.22695,0 -0.314223,-0.15893 -0.194303,-0.35295 0.11991,-0.19404 0.05734,-0.35243 -0.138493,-0.35243 -0.19584,0 -0.515104,0.27744 -0.710034,0.61701 l -0.354501,0.61754 -0.235644,-1.1405 c -0.12937,-0.62743 -0.3638753,-1.06117 -0.5214153,-0.96377 -0.36489,0.22553 -0.213196,-1.28665 0.197404,-1.96732 l 0.3105753,-0.5147 -0.5968627,0.48421 c -0.33699,0.27334 -0.5968628,0.32465 -0.5968628,0.11782 0,-0.20148 0.674513,-0.89327 1.4991335,-1.53737 1.87207,-1.46225 2.505357,-2.06292 2.174027,-2.06292 -0.14175,0 -1.145575,0.67096 -2.230355,1.49138 -1.0847799,0.8204 -4.1948156,3.08449 -6.9112056,5.03121 -11.19441,8.02259 -35.7555664,27.69398 -44.1854164,35.38854 -1.79476,1.63822 -3.26285,2.86535 -3.26285,2.72697 0,-0.23421 5.330991,-6.80719 7.448641,-9.18394 0.51863,-0.58208 1.634185,-1.86726 2.479435,-2.85564 5.08199,-5.94262 15.242497,-16.85382 20.939807,-22.48751 3.9114398,-3.86773 14.0533175,-13.73286 16.1437175,-15.70292 1.30738,-1.23211 2.3771159,-2.37493 2.3771159,-2.5399 0,-0.16497 -0.51611,0.21534 -1.1467,0.84491 -2.06055,2.0573 -5.21558272,4.56988 -5.4472127,4.33824 -0.12462,-0.12462 -0.062928,-0.22634 0.13694251,-0.22634 0.56677,0 0.35091291,-1.21948 -0.33744711,-1.90687 -0.34133,-0.34086 -0.5547896,-0.72588 -0.4743896,-0.85576 0.08041,-0.12994 -0.4737194,-0.21266 -1.2314494,-0.18396 -1.53094,0.058 -1.6223138,-0.0745 -0.8314738,-1.20355 l 0.5457031,-0.7798 -0.6035807,0.23203 c -0.4151,0.15928 -0.5227383,0.10012 -0.3436483,-0.18965 0.14329,-0.2318 0.1299777,-0.38428 -0.029972,-0.33848 -0.65726,0.1882 -2.6154288,-0.4353 -2.4101888,-0.7674 0.12132,-0.19629 -0.057305,-0.35656 -0.396875,-0.35656 h -0.6175334 l 0.6847127,-0.51832 0.6852295,-0.5178 -0.5472534,-0.0109 c -0.30074,-0.006 -0.7009214,0.1077 -0.8893514,0.25322 -0.044166,0.0341 -0.069302,0.051 -0.076998,0.0522 h -5.167e-4 -5.168e-4 -5.168e-4 l -5.167e-4,-5.2e-4 v -5.2e-4 h -5.168e-4 v -5.1e-4 c 1.19e-5,-2e-4 4.669e-4,-8e-4 5.168e-4,-0.001 0.0078,-0.0238 0.1647487,-0.18108 0.4299479,-0.42633 l 0.6934977,-0.6413 -0.8624797,0.21601 -0.8619628,0.216 -0.05116,-0.89762 c -0.02798,-0.49374 0.1176545,-0.89761 0.3234945,-0.89761 0.20586,0 0.2912325,-0.0829 0.1896525,-0.18449 -0.10158,-0.10157 -0.4498262,-0.0834 -0.7735962,0.0408 l -0.5885946,0.22583 0.3818888,0.46044 0.3818889,0.46043 -0.7172689,-0.18758 -0.7172687,-0.18759 0.3178099,-0.59324 c 0.17463,-0.32631 0.8307389,-0.98349 1.4583089,-1.46038 1.59578,-1.21264 2.1534503,-1.80082 1.9244303,-2.02985 -0.10825,-0.10824 -0.3935398,0.0447 -0.6340698,0.34003 -0.24053,0.29527 -0.9931493,0.91483 -1.6722493,1.37666 -1.94461,1.32244 -14.971291,12.1848 -17.502291,14.59446 -0.21586,0.20551 -1.389686,1.24158 -2.608626,2.30219 -1.21895,1.06058 -2.391603,2.0923 -2.606043,2.29288 -0.21443,0.20058 -1.245553,1.12337 -2.291333,2.05052 l -1.901176,1.68569 -0.630969,-0.57103 -0.630969,-0.57102 -0.642855,0.37413 c -0.38069,0.2214 -0.462728,0.3959 -0.201538,0.4284 0.24254,0.0301 0.626291,0.0744 0.852661,0.0987 0.22636,0.0243 0.486126,0.26812 0.577226,0.54157 0.11358,0.34078 -0.01446,0.4277 -0.40721,0.27699 -0.32084,-0.12311 -0.536376,-0.0558 -0.489376,0.15296 0.04618,0.20508 -0.188802,0.55261 -0.521932,0.77205 l -0.605648,0.39894 -0.717269,-0.76998 c -0.85202,-0.91452 -0.910335,-1.20389 -0.187585,-0.92656 0.29105,0.11168 0.529166,0.41895 0.529166,0.68316 0,0.28228 0.218457,0.39674 0.529167,0.27751 0.29104,-0.11168 0.529167,-0.45085 0.529167,-0.75345 0,-0.30264 -0.09848,-0.45189 -0.218592,-0.33176 -0.33534,0.33533 -1.193524,-0.6752 -1.187524,-1.39836 l 0.0047,-0.59066 c -0.04524,-0.006 -0.09088,-0.007 -0.136426,-0.003 -0.31867,0.0269 -0.579293,-0.0796 -0.579293,-0.23719 0,-0.15753 1.93527,-2.0847 4.30103,-4.28243 2.36575,-2.19774 5.501243,-5.12154 6.967533,-6.49727 3.00219,-2.81681 13.696074,-12.10667 20.6736736,-17.95963 2.54442,-2.13431 6.99481561,-5.8708 9.8898356,-8.30337 9.3243108,-7.83485 36.0510788,-28.19165 49.0641888,-37.37033 2.87967,-2.03114 7.934456,-5.61154 11.232906,-7.95662 3.29848,-2.34508 8.518082,-6.00138 11.599292,-8.12509 3.0812,-2.12371 8.497171,-5.87067 12.035441,-8.3261 3.53824,-2.45543 6.897341,-4.70425 7.464661,-4.99763 z M -38.95226,223.18997 c 0.01392,0.002 0.02806,0.004 0.04186,0.006 l -0.04134,-0.0584 z m 0.04186,0.006 0.332796,0.47077 0.374137,0.52917 -0.152962,-0.52917 c -0.06843,-0.23664 -0.29883,-0.42361 -0.553971,-0.47077 z m 173.71084,-89.83463 c 0.38284,0.009 0.1635,0.32557 -0.90175,0.87643 -1.2487,0.64576 -1.38807,1.02023 -0.26459,0.71107 l 0.79375,-0.21808 -0.7059,0.57465 -0.70538,0.57464 0.70538,-0.11524 c 0.4209,-0.0689 0.67014,0.062 0.61754,0.32505 -0.0485,0.24254 0.22949,0.44131 0.61753,0.44131 0.85045,0 0.92417,0.54807 0.13333,0.99064 l -0.57206,0.31988 0.82682,0.57929 c 0.45487,0.31861 0.68806,0.57929 0.5178,0.57929 -0.17026,0 -0.0866,0.27799 0.18603,0.61754 0.78759,0.98098 1.46588,2.30099 1.05059,2.04431 -0.22436,-0.13866 -0.37879,0.0706 -0.37879,0.51315 0,0.41095 -0.14205,0.65977 -0.31575,0.55242 -0.1737,-0.10735 -0.40705,0.0418 -0.51831,0.33177 -0.29292,0.76337 -0.0165,0.67741 3.29902,-1.02785 l 2.99414,-1.53996 0.20412,-0.83405 0.20412,-0.83354 0.20671,1.04593 c 0.2794,1.41157 -0.0572,5.90897 -0.48059,6.42183 -0.18708,0.2266 -2.1966,1.66406 -4.46588,3.19463 -2.2693,1.53056 -4.30031,2.88725 -4.51291,3.01481 -0.26918,0.16151 -0.40468,-0.91544 -0.44648,-3.54759 -0.0731,-4.60497 -0.54734,-8.34999 -1.46296,-11.55175 -0.37944,-1.3268 -0.65271,-2.4475 -0.60771,-2.4908 0.0451,-0.0433 0.99427,-0.48178 2.10994,-0.97411 0.91214,-0.40252 1.57447,-0.58232 1.87224,-0.57567 z m -164.609072,25.2181 2.601908,7.58507 c 2.9631,8.6376 3.887478,10.98805 6.918958,17.59634 1.19092,2.59603 2.119656,4.74987 2.063956,4.78627 -0.35316,0.23069 -12.556645,10.57204 -16.449125,13.9392 -2.58837,2.23907 -5.406003,4.68288 -6.261633,5.43068 -0.85563,0.74779 -1.555977,1.20889 -1.555977,1.02474 0,-0.18415 0.307452,-0.61292 0.683162,-0.95291 0.3757,-0.34001 1.912309,-2.54771 3.414779,-4.90565 2.99879,-4.70622 4.835763,-6.95897 10.300663,-12.6323 l 3.639054,-3.77755 -0.879016,-2.78174 c -2.42065,-7.66273 -3.794947,-14.78702 -4.271057,-22.13715 z m 287.612422,48.68333 -1.33067,2.46962 c -2.61427,4.85145 -7.89609,12.17091 -13.23795,18.34462 -10.4,12.01952 -23.13779,22.41073 -37.13779,30.29685 -18.90139,10.64707 -35.96658,16.15307 -57.02959,18.39991 -5.96413,0.63621 -21.41623,0.61726 -27.51667,-0.0336 -21.39397,-2.2825 -41.734488,-8.78493 -59.686278,-19.08048 -7.74645,-4.44267 -26.214937,-17.4323 -26.214937,-18.43816 0,-0.28094 4.110403,-3.8315 8.818583,-7.6171 1.20658,-0.97015 4.795727,-3.91073 7.976257,-6.535 3.18053,-2.6243 6.814803,-5.51331 8.075993,-6.42028 1.26119,-0.90697 4.42786,-3.31271 7.03678,-5.34593 l 4.743379,-3.69693 1.253671,1.03404 c 5.58453,4.60576 7.589417,6.12049 12.542387,9.47384 20.710715,14.02202 43.131755,22.42562 67.027945,25.12302 5.47904,0.61837 21.67975,0.63216 26.63455,0.0227 15.65579,-1.92561 30.50829,-6.27404 43.07955,-12.61319 7.41322,-3.73819 16.76486,-9.53322 21.83174,-13.52837 3.46681,-2.73352 10.99516,-9.34135 12.03286,-10.56163 z M 27.343952,245.53951 c 0.10972,0 0.594353,0.35753 1.077453,0.79478 4.24379,3.84096 10.058143,8.14382 19.399333,14.35623 3.58953,2.38723 6.677287,4.47916 6.861597,4.64881 0.67578,0.62187 -0.445527,0.20863 -7.214547,-2.65927 -8.24133,-3.49168 -11.226115,-4.97066 -15.072465,-7.46828 -1.59605,-1.03637 -3.379869,-2.13186 -3.964099,-2.43396 l -1.062468,-0.54932 -1.856734,1.20355 c -9.1436,5.92545 -15.383845,9.31542 -16.2413857,8.82271 -0.23733,-0.13635 -0.3196178,-0.12371 -0.1824178,0.0284 0.21738,0.24106 -0.8125605,1.09965 -2.5424805,2.11925 -0.72591,0.42786 2.5305297,-3.07064 5.11545,-5.49579 1.89787,-1.78056 4.039786,-3.63539 12.890686,-11.16263 1.42593,-1.21266 2.682358,-2.20451 2.792078,-2.20451 z"
       style="fill:#ffffff;stroke-width:0.264583"
       id="path2"
       sodipodi:nodetypes="cssssssssssssssccsssssscccssssccccssssccssssssssssssssscccssssssssssssssssssssssscsssccscssscssssssccccsssscssssccccssssccccscccccsssscssssssssssccccsssssssssssssssssssssssssssscsscsssssssscssssssssscssssscssscssccsscssccccccccccscsccccsscccssccsscccssssscccsscsssscccccssssssssssssscccccccccsssscccssssssccsscccssccssssssssssssssssscccssscscssssssssssssssscsssssccssssssssssssscccccccsssccccsscssssccsssscsccccssssssccccssssssssssccssccssssssscccsscccccsssssssssssssssscsssscccsssssssccsccssssssssssssssssssscccsssscccsscccccccscsccccsssccccccsssssssccccccsssssccssssscccssssssssscccccccccsccscccccsscccsssssssccccssssscscccscssssscccscccssssssssscccsccssccssscsssccsssssss" />
  </g>
</svg>
