<?xml version="1.0" encoding="UTF-8"?>
<svg xmlns="http://www.w3.org/2000/svg" xmlns:xlink="http://www.w3.org/1999/xlink" width="2834.65" height="2834.65" viewBox="0 0 2834.65 2834.65">
<defs>
<clipPath id="clip-0">
<path clip-rule="nonzero" d="M 0 0 L 2834.648438 0 L 2834.648438 2834.648438 L 0 2834.648438 Z M 0 0 "/>
</clipPath>
<clipPath id="clip-1">
<path clip-rule="nonzero" d="M 1168 1280 L 1488 1280 L 1488 1583 L 1168 1583 Z M 1168 1280 "/>
</clipPath>
<clipPath id="clip-2">
<path clip-rule="evenodd" d="M 1340.550781 1280.269531 C 1378.429688 1345.851562 1427.050781 1400.980469 1487.871094 1446.140625 C 1418.460938 1523.53125 1243.128906 1571.011719 1168.941406 1582.980469 C 1189.339844 1512.011719 1255.359375 1340.429688 1340.550781 1280.269531 "/>
</clipPath>
<linearGradient id="linear-pattern-0" gradientUnits="userSpaceOnUse" x1="-0.525997" y1="0" x2="0.784692" y2="0" gradientTransform="matrix(-244.958, 229.215, 229.215, 244.958, 1365.67, 1407.94)">
<stop offset="0" stop-color="rgb(94.219971%, 68.232727%, 12.590027%)" stop-opacity="1"/>
<stop offset="0.25" stop-color="rgb(94.219971%, 68.232727%, 12.590027%)" stop-opacity="1"/>
<stop offset="0.375" stop-color="rgb(94.219971%, 68.232727%, 12.590027%)" stop-opacity="1"/>
<stop offset="0.40625" stop-color="rgb(94.210815%, 68.099976%, 12.539673%)" stop-opacity="1"/>
<stop offset="0.410156" stop-color="rgb(94.195557%, 67.755127%, 12.411499%)" stop-opacity="1"/>
<stop offset="0.414062" stop-color="rgb(94.190979%, 67.544556%, 12.338257%)" stop-opacity="1"/>
<stop offset="0.417969" stop-color="rgb(94.290161%, 67.353821%, 12.330627%)" stop-opacity="1"/>
<stop offset="0.421875" stop-color="rgb(94.390869%, 67.163086%, 12.324524%)" stop-opacity="1"/>
<stop offset="0.429688" stop-color="rgb(94.433594%, 67.018127%, 12.27417%)" stop-opacity="1"/>
<stop offset="0.4375" stop-color="rgb(94.467163%, 66.766357%, 12.132263%)" stop-opacity="1"/>
<stop offset="0.445312" stop-color="rgb(94.451904%, 66.55426%, 12.052917%)" stop-opacity="1"/>
<stop offset="0.453125" stop-color="rgb(94.433594%, 66.297913%, 12.075806%)" stop-opacity="1"/>
<stop offset="0.457031" stop-color="rgb(94.406128%, 65.934753%, 12.112427%)" stop-opacity="1"/>
<stop offset="0.460937" stop-color="rgb(94.390869%, 65.722656%, 12.133789%)" stop-opacity="1"/>
<stop offset="0.46875" stop-color="rgb(94.38324%, 65.603638%, 12.145996%)" stop-opacity="1"/>
<stop offset="0.476562" stop-color="rgb(94.363403%, 65.342712%, 12.173462%)" stop-opacity="1"/>
<stop offset="0.480469" stop-color="rgb(94.337463%, 64.990234%, 12.208557%)" stop-opacity="1"/>
<stop offset="0.484375" stop-color="rgb(94.322205%, 64.778137%, 12.229919%)" stop-opacity="1"/>
<stop offset="0.488281" stop-color="rgb(94.306946%, 64.56604%, 12.251282%)" stop-opacity="1"/>
<stop offset="0.492188" stop-color="rgb(94.291687%, 64.353943%, 12.27417%)" stop-opacity="1"/>
<stop offset="0.496094" stop-color="rgb(94.277954%, 64.167786%, 12.29248%)" stop-opacity="1"/>
<stop offset="0.5" stop-color="rgb(94.264221%, 63.978577%, 12.312317%)" stop-opacity="1"/>
<stop offset="0.507812" stop-color="rgb(94.256592%, 63.873291%, 12.322998%)" stop-opacity="1"/>
<stop offset="0.511719" stop-color="rgb(94.314575%, 63.601685%, 12.333679%)" stop-opacity="1"/>
<stop offset="0.515625" stop-color="rgb(94.377136%, 63.435364%, 12.333679%)" stop-opacity="1"/>
<stop offset="0.519531" stop-color="rgb(94.46106%, 63.241577%, 12.332153%)" stop-opacity="1"/>
<stop offset="0.523438" stop-color="rgb(94.543457%, 63.044739%, 12.332153%)" stop-opacity="1"/>
<stop offset="0.527344" stop-color="rgb(94.528198%, 62.831116%, 12.353516%)" stop-opacity="1"/>
<stop offset="0.53125" stop-color="rgb(94.511414%, 62.619019%, 12.374878%)" stop-opacity="1"/>
<stop offset="0.539062" stop-color="rgb(94.500732%, 62.469482%, 12.390137%)" stop-opacity="1"/>
<stop offset="0.546875" stop-color="rgb(94.480896%, 62.211609%, 12.417603%)" stop-opacity="1"/>
<stop offset="0.554688" stop-color="rgb(94.465637%, 61.999512%, 12.438965%)" stop-opacity="1"/>
<stop offset="0.5625" stop-color="rgb(94.445801%, 61.737061%, 12.464905%)" stop-opacity="1"/>
<stop offset="0.566406" stop-color="rgb(94.418335%, 61.366272%, 12.503052%)" stop-opacity="1"/>
<stop offset="0.570312" stop-color="rgb(94.403076%, 61.154175%, 12.52594%)" stop-opacity="1"/>
<stop offset="0.574219" stop-color="rgb(94.387817%, 60.943604%, 12.458801%)" stop-opacity="1"/>
<stop offset="0.578125" stop-color="rgb(94.372559%, 60.733032%, 12.390137%)" stop-opacity="1"/>
<stop offset="0.582031" stop-color="rgb(94.3573%, 60.520935%, 12.353516%)" stop-opacity="1"/>
<stop offset="0.585938" stop-color="rgb(94.340515%, 60.308838%, 12.316895%)" stop-opacity="1"/>
<stop offset="0.589844" stop-color="rgb(94.325256%, 60.098267%, 12.339783%)" stop-opacity="1"/>
<stop offset="0.59375" stop-color="rgb(94.309998%, 59.886169%, 12.362671%)" stop-opacity="1"/>
<stop offset="0.601562" stop-color="rgb(94.300842%, 59.761047%, 12.374878%)" stop-opacity="1"/>
<stop offset="0.609375" stop-color="rgb(94.281006%, 59.501648%, 12.402344%)" stop-opacity="1"/>
<stop offset="0.613281" stop-color="rgb(94.255066%, 59.153748%, 12.438965%)" stop-opacity="1"/>
<stop offset="0.617188" stop-color="rgb(94.239807%, 58.94165%, 12.461853%)" stop-opacity="1"/>
<stop offset="0.621094" stop-color="rgb(94.224548%, 58.729553%, 12.416077%)" stop-opacity="1"/>
<stop offset="0.625" stop-color="rgb(94.20929%, 58.518982%, 12.3703%)" stop-opacity="1"/>
<stop offset="0.628906" stop-color="rgb(94.194031%, 58.328247%, 12.313843%)" stop-opacity="1"/>
<stop offset="0.632812" stop-color="rgb(94.180298%, 58.135986%, 12.257385%)" stop-opacity="1"/>
<stop offset="0.640625" stop-color="rgb(94.172668%, 58.030701%, 12.269592%)" stop-opacity="1"/>
<stop offset="0.648438" stop-color="rgb(94.15741%, 57.818604%, 12.29248%)" stop-opacity="1"/>
<stop offset="0.65625" stop-color="rgb(94.140625%, 57.598877%, 12.307739%)" stop-opacity="1"/>
<stop offset="0.660156" stop-color="rgb(94.116211%, 57.273865%, 12.243652%)" stop-opacity="1"/>
<stop offset="0.664063" stop-color="rgb(94.100952%, 57.064819%, 12.174988%)" stop-opacity="1"/>
<stop offset="0.667969" stop-color="rgb(94.085693%, 56.855774%, 12.106323%)" stop-opacity="1"/>
<stop offset="0.671875" stop-color="rgb(94.070435%, 56.646729%, 12.037659%)" stop-opacity="1"/>
<stop offset="0.675781" stop-color="rgb(94.055176%, 56.437683%, 11.968994%)" stop-opacity="1"/>
<stop offset="0.679688" stop-color="rgb(94.039917%, 56.227112%, 11.901855%)" stop-opacity="1"/>
<stop offset="0.683594" stop-color="rgb(94.024658%, 56.018066%, 11.834717%)" stop-opacity="1"/>
<stop offset="0.6875" stop-color="rgb(94.009399%, 55.809021%, 11.767578%)" stop-opacity="1"/>
<stop offset="0.691406" stop-color="rgb(93.997192%, 55.645752%, 11.695862%)" stop-opacity="1"/>
<stop offset="0.695313" stop-color="rgb(93.984985%, 55.482483%, 11.624146%)" stop-opacity="1"/>
<stop offset="0.703125" stop-color="rgb(93.977356%, 55.380249%, 11.546326%)" stop-opacity="1"/>
<stop offset="0.707031" stop-color="rgb(93.954468%, 55.082703%, 11.401367%)" stop-opacity="1"/>
<stop offset="0.710938" stop-color="rgb(93.940735%, 54.885864%, 11.334229%)" stop-opacity="1"/>
<stop offset="0.714844" stop-color="rgb(93.928528%, 54.714966%, 11.236572%)" stop-opacity="1"/>
<stop offset="0.71875" stop-color="rgb(93.914795%, 54.541016%, 11.138916%)" stop-opacity="1"/>
<stop offset="0.722656" stop-color="rgb(93.908691%, 54.441833%, 10.971069%)" stop-opacity="1"/>
<stop offset="0.726562" stop-color="rgb(93.901062%, 54.342651%, 10.804749%)" stop-opacity="1"/>
<stop offset="0.730469" stop-color="rgb(93.887329%, 54.159546%, 10.719299%)" stop-opacity="1"/>
<stop offset="0.734375" stop-color="rgb(93.873596%, 53.974915%, 10.635376%)" stop-opacity="1"/>
<stop offset="0.738281" stop-color="rgb(93.882751%, 53.768921%, 10.588074%)" stop-opacity="1"/>
<stop offset="0.742188" stop-color="rgb(93.891907%, 53.562927%, 10.540771%)" stop-opacity="1"/>
<stop offset="0.746094" stop-color="rgb(93.986511%, 53.366089%, 10.543823%)" stop-opacity="1"/>
<stop offset="0.75" stop-color="rgb(94.07959%, 53.167725%, 10.546875%)" stop-opacity="1"/>
<stop offset="0.753906" stop-color="rgb(94.099426%, 52.963257%, 10.507202%)" stop-opacity="1"/>
<stop offset="0.757812" stop-color="rgb(94.117737%, 52.757263%, 10.467529%)" stop-opacity="1"/>
<stop offset="0.761719" stop-color="rgb(94.102478%, 52.563477%, 10.415649%)" stop-opacity="1"/>
<stop offset="0.765625" stop-color="rgb(94.088745%, 52.368164%, 10.366821%)" stop-opacity="1"/>
<stop offset="0.773438" stop-color="rgb(94.07959%, 52.262878%, 10.380554%)" stop-opacity="1"/>
<stop offset="0.777344" stop-color="rgb(94.059753%, 51.992798%, 10.366821%)" stop-opacity="1"/>
<stop offset="0.78125" stop-color="rgb(94.047546%, 51.828003%, 10.33783%)" stop-opacity="1"/>
<stop offset="0.785156" stop-color="rgb(94.032288%, 51.622009%, 10.281372%)" stop-opacity="1"/>
<stop offset="0.789062" stop-color="rgb(94.015503%, 51.41449%, 10.224915%)" stop-opacity="1"/>
<stop offset="0.792969" stop-color="rgb(94.000244%, 51.203918%, 10.253906%)" stop-opacity="1"/>
<stop offset="0.796875" stop-color="rgb(93.984985%, 50.991821%, 10.282898%)" stop-opacity="1"/>
<stop offset="0.800781" stop-color="rgb(93.917847%, 50.78125%, 10.240173%)" stop-opacity="1"/>
<stop offset="0.804688" stop-color="rgb(93.850708%, 50.567627%, 10.197449%)" stop-opacity="1"/>
<stop offset="0.808594" stop-color="rgb(93.728638%, 50.35553%, 10.07843%)" stop-opacity="1"/>
<stop offset="0.8125" stop-color="rgb(93.605042%, 50.141907%, 9.959412%)" stop-opacity="1"/>
<stop offset="0.820312" stop-color="rgb(93.489075%, 50.022888%, 9.906006%)" stop-opacity="1"/>
<stop offset="0.828125" stop-color="rgb(93.296814%, 49.755859%, 9.835815%)" stop-opacity="1"/>
<stop offset="0.832031" stop-color="rgb(93.203735%, 49.397278%, 9.848022%)" stop-opacity="1"/>
<stop offset="0.835938" stop-color="rgb(93.186951%, 49.186707%, 9.87854%)" stop-opacity="1"/>
<stop offset="0.84375" stop-color="rgb(93.179321%, 49.067688%, 9.825134%)" stop-opacity="1"/>
<stop offset="0.851562" stop-color="rgb(93.161011%, 48.81897%, 9.732056%)" stop-opacity="1"/>
<stop offset="0.855469" stop-color="rgb(93.135071%, 48.478699%, 9.719849%)" stop-opacity="1"/>
<stop offset="0.859375" stop-color="rgb(93.119812%, 48.269653%, 9.751892%)" stop-opacity="1"/>
<stop offset="0.863281" stop-color="rgb(93.183899%, 48.066711%, 9.765625%)" stop-opacity="1"/>
<stop offset="0.867188" stop-color="rgb(93.244934%, 47.86377%, 9.779358%)" stop-opacity="1"/>
<stop offset="0.871094" stop-color="rgb(93.318176%, 47.680664%, 9.788513%)" stop-opacity="1"/>
<stop offset="0.875" stop-color="rgb(93.391418%, 47.497559%, 9.797668%)" stop-opacity="1"/>
<stop offset="0.882812" stop-color="rgb(93.383789%, 47.392273%, 9.814453%)" stop-opacity="1"/>
<stop offset="0.886719" stop-color="rgb(93.363953%, 47.116089%, 9.854126%)" stop-opacity="1"/>
<stop offset="0.890625" stop-color="rgb(93.35022%, 46.94519%, 9.880066%)" stop-opacity="1"/>
<stop offset="0.894531" stop-color="rgb(93.334961%, 46.736145%, 9.910583%)" stop-opacity="1"/>
<stop offset="0.898438" stop-color="rgb(93.319702%, 46.525574%, 9.941101%)" stop-opacity="1"/>
<stop offset="0.902344" stop-color="rgb(93.304443%, 46.315002%, 9.973145%)" stop-opacity="1"/>
<stop offset="0.90625" stop-color="rgb(93.287659%, 46.105957%, 10.003662%)" stop-opacity="1"/>
<stop offset="0.914062" stop-color="rgb(93.276978%, 45.950317%, 10.02655%)" stop-opacity="1"/>
<stop offset="0.921875" stop-color="rgb(93.257141%, 45.690918%, 10.064697%)" stop-opacity="1"/>
<stop offset="0.925781" stop-color="rgb(93.234253%, 45.384216%, 10.031128%)" stop-opacity="1"/>
<stop offset="0.929688" stop-color="rgb(93.218994%, 45.181274%, 9.9823%)" stop-opacity="1"/>
<stop offset="0.933594" stop-color="rgb(93.206787%, 45.019531%, 9.960938%)" stop-opacity="1"/>
<stop offset="0.9375" stop-color="rgb(93.19458%, 44.857788%, 9.938049%)" stop-opacity="1"/>
<stop offset="0.945312" stop-color="rgb(93.186951%, 44.752502%, 9.954834%)" stop-opacity="1"/>
<stop offset="0.949219" stop-color="rgb(93.164062%, 44.451904%, 9.999084%)" stop-opacity="1"/>
<stop offset="0.953125" stop-color="rgb(93.15033%, 44.25354%, 10.029602%)" stop-opacity="1"/>
<stop offset="0.957031" stop-color="rgb(93.135071%, 44.044495%, 10.06012%)" stop-opacity="1"/>
<stop offset="0.960938" stop-color="rgb(93.118286%, 43.835449%, 10.092163%)" stop-opacity="1"/>
<stop offset="0.964844" stop-color="rgb(93.103027%, 43.624878%, 10.124207%)" stop-opacity="1"/>
<stop offset="0.96875" stop-color="rgb(93.087769%, 43.415833%, 10.15625%)" stop-opacity="1"/>
<stop offset="0.976562" stop-color="rgb(93.078613%, 43.287659%, 10.174561%)" stop-opacity="1"/>
<stop offset="0.984375" stop-color="rgb(93.060303%, 43.054199%, 10.209656%)" stop-opacity="1"/>
<stop offset="0.992188" stop-color="rgb(93.045044%, 42.845154%, 10.241699%)" stop-opacity="1"/>
<stop offset="0.996094" stop-color="rgb(93.023682%, 42.564392%, 10.282898%)" stop-opacity="1"/>
<stop offset="1" stop-color="rgb(93.011475%, 42.38739%, 10.310364%)" stop-opacity="1"/>
</linearGradient>
</defs>
<g clip-path="url(#clip-0)">
<path fill-rule="evenodd" fill="rgb(100%, 100%, 100%)" fill-opacity="1" d="M 0 0 L 2834.648438 0 L 2834.648438 2834.648438 L 0 2834.648438 L 0 0 "/>
</g>
<path fill-rule="evenodd" fill="rgb(90.348816%, 11.737061%, 16.300964%)" fill-opacity="1" d="M 2245.78125 618.261719 L 2245.769531 618.238281 C 2207.488281 575.511719 2174.230469 530.890625 2146.179688 485.671875 C 2225.28125 464.710938 2311.820312 458.738281 2408.101562 472.851562 C 2411.578125 570.121094 2396.160156 655.480469 2366.660156 731.789062 C 2324.78125 698.949219 2284.070312 660.988281 2245.78125 618.261719 "/>
<path fill-rule="evenodd" fill="rgb(25.276184%, 48.316956%, 78.164673%)" fill-opacity="1" d="M 2185.21875 671.539062 C 2146.421875 628.789062 2080.328125 625.308594 2037.269531 663.890625 C 1994.199219 702.46875 1990.410156 768.539062 2028.648438 811.789062 L 2029.101562 812.308594 C 2067.839844 855.558594 2134.289062 859.210938 2177.53125 820.46875 C 2220.769531 781.738281 2224.421875 715.289062 2185.691406 672.050781 Z M 1435.980469 1342.691406 C 1404.769531 1307.398438 1377.800781 1266.75 1355.019531 1219.761719 L 1383.640625 1187.75 C 1379.109375 1176.738281 1374.859375 1165.378906 1370.910156 1153.671875 C 1385.140625 1137.828125 1399.289062 1121.699219 1413.390625 1105.371094 L 1217.511719 972.5 C 1337.621094 911.878906 1460.421875 882.25 1587.261719 898.890625 C 1740.96875 718.949219 1905.429688 551.988281 2124.019531 494.070312 C 2153.410156 541.441406 2188.230469 588.191406 2228.289062 632.96875 L 2228.75 633.480469 C 2269.011719 678.429688 2311.839844 718.359375 2355.878906 752.898438 C 2274.339844 963.839844 2090.328125 1108.890625 1894.609375 1241.941406 C 1897.261719 1369.859375 1854.339844 1488.699219 1780.910156 1601.449219 L 1670.289062 1392.160156 C 1652.519531 1404.390625 1634.941406 1416.691406 1617.640625 1429.121094 C 1606.261719 1424.109375 1595.191406 1418.75 1584.429688 1413.019531 L 1584.589844 1413.109375 L 1549.230469 1438.460938 C 1506.859375 1411.339844 1469.628906 1380.359375 1437.679688 1344.609375 L 1435.980469 1342.691406 "/>
<path fill-rule="evenodd" fill="rgb(29.945374%, 62.995911%, 86.975098%)" fill-opacity="1" d="M 1435.980469 1342.691406 C 1404.769531 1307.398438 1377.800781 1266.75 1355.019531 1219.761719 L 1383.640625 1187.75 C 1379.109375 1176.738281 1374.859375 1165.378906 1370.910156 1153.671875 C 1385.140625 1137.828125 1399.289062 1121.699219 1413.390625 1105.371094 L 1217.511719 972.5 C 1337.621094 911.878906 1460.421875 882.25 1587.261719 898.890625 C 1740.96875 718.949219 1905.429688 551.988281 2124.019531 494.070312 C 2153.410156 541.441406 2188.230469 588.191406 2228.289062 632.96875 L 2185.21875 671.539062 C 2146.421875 628.789062 2080.328125 625.308594 2037.269531 663.890625 C 1994.199219 702.46875 1990.410156 768.539062 2028.648438 811.789062 L 1435.980469 1342.691406 "/>
<path fill-rule="evenodd" fill="rgb(17.221069%, 33.456421%, 67.076111%)" fill-opacity="1" d="M 2355.878906 752.898438 C 2274.339844 963.839844 2090.328125 1108.890625 1894.609375 1241.941406 C 1897.261719 1369.859375 1854.339844 1488.699219 1780.910156 1601.449219 L 1670.289062 1392.160156 C 1652.519531 1404.390625 1634.941406 1416.691406 1617.640625 1429.121094 C 1606.261719 1424.109375 1595.191406 1418.75 1584.429688 1413.019531 L 1584.589844 1413.109375 L 1549.230469 1438.460938 C 1506.859375 1411.339844 1469.628906 1380.359375 1437.679688 1344.609375 L 1435.96875 1342.691406 L 2028.648438 811.789062 L 2029.101562 812.308594 C 2067.839844 855.558594 2134.289062 859.210938 2177.53125 820.480469 C 2220.769531 781.738281 2224.421875 715.289062 2185.691406 672.050781 L 2185.21875 671.539062 L 2228.289062 632.96875 L 2228.75 633.480469 C 2269.011719 678.441406 2311.828125 718.359375 2355.878906 752.898438 "/>
<path fill-rule="evenodd" fill="rgb(90.348816%, 11.737061%, 16.300964%)" fill-opacity="1" d="M 2245.78125 618.261719 L 2245.769531 618.238281 C 2207.488281 575.511719 2174.230469 530.890625 2146.179688 485.671875 C 2225.28125 464.710938 2311.820312 458.738281 2408.101562 472.851562 L 2245.78125 618.261719 "/>
<path fill-rule="evenodd" fill="rgb(65.933228%, 14.18457%, 19.177246%)" fill-opacity="1" d="M 2408.101562 472.851562 C 2411.578125 570.121094 2396.160156 655.480469 2366.660156 731.789062 C 2324.78125 698.949219 2284.070312 660.988281 2245.78125 618.261719 L 2408.101562 472.851562 "/>
<path fill-rule="evenodd" fill="rgb(93.922424%, 46.22345%, 8.592224%)" fill-opacity="1" d="M 1529.421875 1473.96875 C 1449.390625 1587.761719 1190.75 1647.171875 1083.628906 1659.460938 C 1108.21875 1556.570312 1194.710938 1302.230469 1317.628906 1235.960938 C 1318.089844 1237.421875 1318.660156 1238.859375 1319.351562 1240.28125 C 1331.480469 1265.308594 1344.878906 1288.808594 1359.53125 1310.898438 C 1373.921875 1332.589844 1389.710938 1352.988281 1406.878906 1372.199219 C 1424.039062 1391.410156 1442.371094 1409.121094 1461.851562 1425.46875 C 1480.988281 1441.53125 1501.578125 1456.578125 1523.578125 1470.71875 C 1525.421875 1472.019531 1527.378906 1473.109375 1529.421875 1473.96875 "/>
<g clip-path="url(#clip-1)">
<g clip-path="url(#clip-2)">
<path fill-rule="nonzero" fill="url(#linear-pattern-0)" d="M 1338.980469 1121.15625 L 1638.890625 1441.664062 L 1317.828125 1742.09375 L 1017.917969 1421.585938 Z M 1338.980469 1121.15625 "/>
</g>
</g>
<path fill-rule="evenodd" fill="rgb(93.922424%, 46.22345%, 8.592224%)" fill-opacity="1" d="M 1720.261719 1764.300781 C 1826.550781 1999.46875 1835.671875 2209.171875 1723.050781 2310.058594 C 1544.441406 2470.039062 1127.398438 2295.800781 791.550781 1920.871094 C 455.703125 1545.941406 328.234375 1112.308594 506.835938 952.320312 C 619.460938 851.441406 826.898438 883.5 1049 1014.921875 C 859.015625 912.179688 684.832031 891.691406 587.449219 978.921875 C 422.964844 1126.261719 539.890625 1525.101562 848.617188 1869.75 C 1157.339844 2214.410156 1540.960938 2374.359375 1705.449219 2227.011719 C 1802.828125 2139.78125 1801.558594 1964.398438 1720.261719 1764.300781 "/>
<path fill-rule="evenodd" fill="rgb(93.922424%, 46.22345%, 8.592224%)" fill-opacity="1" d="M 1229.21875 1228.890625 C 1017.238281 1061.828125 795.359375 1004.371094 684.117188 1104.019531 C 595.507812 1183.398438 598.292969 1343.488281 675.257812 1521.078125 C 616.796875 1369.789062 619.355469 1235.769531 695.972656 1167.140625 C 797.550781 1076.140625 999.09375 1127.140625 1192.5 1277.648438 Z M 1176.179688 2080.289062 C 1344.269531 2176.269531 1503.089844 2196.589844 1591.699219 2117.210938 C 1702.960938 2017.558594 1670.148438 1790.660156 1527.289062 1561.621094 L 1474.808594 1592.789062 C 1603.238281 1801.558594 1631.851562 2007.511719 1530.269531 2098.511719 C 1453.648438 2167.140625 1320.160156 2154.988281 1176.179688 2080.289062 "/>
<path fill-rule="evenodd" fill="rgb(93.922424%, 46.22345%, 8.592224%)" fill-opacity="1" d="M 1407.628906 1709.539062 C 1459.628906 1829.550781 1461.511719 1937.71875 1401.640625 1991.351562 C 1306.691406 2076.410156 1092.429688 1992.101562 923.085938 1803.050781 C 753.738281 1614 693.429688 1391.789062 788.382812 1306.730469 C 848.257812 1253.101562 955.570312 1266.828125 1069.148438 1331.679688 C 971.863281 1281.210938 881.664062 1273 829.894531 1319.371094 C 742.445312 1397.699219 797.75 1602.089844 953.421875 1775.871094 C 1109.089844 1949.660156 1306.179688 2027.039062 1393.628906 1948.710938 C 1445.398438 1902.328125 1447.128906 1811.78125 1407.628906 1709.550781 L 1407.628906 1709.539062 "/>
<path fill-rule="evenodd" fill="rgb(89.089966%, 96.081543%, 99.01123%)" fill-opacity="1" d="M 2118 526.898438 C 1841.640625 667.03125 1546.011719 1003.898438 1427.558594 1157.609375 C 1553.539062 964.679688 1818.660156 650.519531 2118 526.898438 "/>
</svg>
